<svg xmlns="http://www.w3.org/2000/svg" viewBox="0 0 99 99"><path fill="#e2b2f5" d="M 29.00258523184282 56.06544974853168 Q 29 56.07 30.58 54.98 32.16 53.9 34.68 52.38 37.2 50.85 39.73 49.16 42.27 47.47 44.36 46.2 46.45 44.93 48.4 44.02 50.35 43.12 52.37 41.98 54.39 40.84 56.82 40.35 59.24 39.87 61.72 40.85 64.2 41.83 63.46 44.61 62.72 47.4 60.94 49.48 59.16 51.56 56.99 53.54 54.81 55.53 52.28 57.02 49.75 58.51 47.5 59.69 45.25 60.87 43.31 61.97 41.36 63.07 39.13 64.62 36.89 66.16 35.04 68 33.19 69.85 30.66 73.12 28.13 76.4 27.51 77 26.89 77.6 26.03 77.72 25.18 77.85 24.41 77.44 23.65 77.03 23.27 76.26 22.89 75.48 23.23 74.93 23.57 74.38 25.69 71.76 27.8 69.13 31.71 65.57 35.61 62.01 38.53 59.72 41.44 57.43 45.61 55.13 49.78 52.82 54.6 49.48 59.41 46.13 63.31 43.55 67.2 40.98 70.08 38.94 72.95 36.89 75.91 35.27 78.87 33.64 81.11 32.39 83.34 31.15 85.74 29.58 88.13 28.02 88.84 27.8 89.55 27.59 90.25 27.83 90.95 28.08 91.37 28.68 91.8 29.29 91.78 30.03 91.77 30.77 91.51 30.89 91.26 31.01 89.89 31.83 88.53 32.64 86.26 34.41 83.98 36.18 81.84 37.85 79.71 39.52 76.42 42.12 73.13 44.72 68.26 48.64 63.4 52.55 59.9 55.57 56.4 58.6 53.18 61.51 49.95 64.42 46.42 67.86 42.89 71.31 40.63 73.68 38.37 76.05 35.8 78.66 33.23 81.26 31.22 81.31 29.2 81.35 30.7 78.21 32.2 75.08 35.21 73.46 38.22 71.85 40.97 70.7 43.72 69.56 47.59 68.23 51.46 66.9 55.05 65.35 58.64 63.8 62.26 61.98 65.88 60.17 69.64 58.19 73.4 56.2 76.27 54.16 79.15 52.13 79.36 51.53 79.57 50.94 76.2 53.44 72.82 55.95 68.92 58.52 65.02 61.09 61.29 64.28 57.57 67.47 53.28 70.91 48.99 74.34 44.06 78.04 39.13 81.73 36.02 83.94 32.91 86.14 30.05 89.45 27.19 92.77 26.68 93.12 26.17 93.48 25.55 93.47 24.93 93.46 24.43 93.09 23.93 92.71 23.75 92.12 23.57 91.52 24.5 90.76 25.43 90.01 28.86 87.43 32.29 84.86 34.93 83.47 37.56 82.09 41.09 79.5 44.62 76.92 49.61 72.48 54.59 68.04 57.84 64.83 61.09 61.61 63.79 59.34 66.48 57.08 68.9 54.88 71.32 52.68 73.29 50.75 75.27 48.82 75.88 48.57 76.48 48.32 77.12 48.48 77.76 48.64 78.18 49.14 78.6 49.64 78.65 50.3 78.69 50.95 78.21 51.31 77.73 51.67 75.28 53.16 72.82 54.65 69.11 56.29 65.4 57.94 62.65 59.65 59.9 61.37 57.02 63.18 54.14 64.99 52 66.6 49.86 68.21 47.85 69.46 45.85 70.71 44.35 70.98 42.84 71.25 42.82 69.9 42.8 68.56 44.41 67 46.02 65.44 48.62 64.09 51.23 62.74 53.86 61.78 56.49 60.83 59.23 59.99 61.98 59.15 66.15 58.08 70.32 57.01 71.18 57.17 72.05 57.33 72.65 57.97 73.26 58.6 73.37 59.47 73.49 60.34 73.07 61.11 72.65 61.88 72.17 62.54 71.68 63.19 69.81 65.65 67.94 68.12 66.3 70.06 64.66 72.01 62.81 73.83 60.96 75.65 58.72 77.37 56.47 79.09 54.24 79.62 52.02 80.15 50.01 78.86 47.99 77.58 48.99 75.37 49.99 73.17 51.57 71.63 53.15 70.1 55.11 68.69 57.06 67.29 58.54 64.93 60.02 62.56 59.01 59.46 58 56.36 57.91 53.92 57.83 51.48 57.79 49.1 57.76 46.72 57.89 44.44 58.03 42.15 57.41 41.35 56.79 40.56 53.63 43.12 50.48 45.68 48.05 47.26 45.62 48.83 42.9 50.46 40.18 52.09 37.82 54.09 35.46 56.09 35.27 57.85 35.08 59.62 38.36 58.65 41.64 57.69 44.45 56.02 47.26 54.35 50.56 52.61 53.86 50.87 57.27 48.72 60.69 46.58 64.1 43.76 67.52 40.94 68.24 40.76 68.97 40.58 69.66 40.87 70.35 41.15 70.74 41.78 71.13 42.42 71.08 43.16 71.02 43.9 70.3 44.35 69.58 44.79 66.75 46.31 63.92 47.83 61.38 48.68 58.85 49.53 56.52 50.63 54.19 51.73 51.31 53.01 48.42 54.28 45.14 55.16 41.85 56.03 39.31 56.85 36.77 57.67 33.18 59.66 29.58 61.66 28.77 61.76 27.96 61.87 27.25 61.48 26.53 61.09 26.18 60.35 25.83 59.61 25.98 58.81 26.13 58.01 26.81 57.82 27.5 57.64 30.01 56.87 32.53 56.1 34.61 55.03 36.69 53.95 39.68 51.99 42.67 50.03 45.84 47.58 49 45.13 51.47 43.14 53.95 41.16 56.82 39.16 59.7 37.17 61.7 35.12 63.69 33.06 64.38 32.76 65.07 32.47 65.8 32.63 66.53 32.79 67.02 33.35 67.52 33.91 67.59 34.66 67.67 35.4 67.05 35.98 66.44 36.55 64.11 38.69 61.79 40.83 59.62 42.4 57.46 43.98 54.95 45.33 52.44 46.67 50.53 48.2 48.63 49.73 46.44 51.8 44.24 53.88 44.27 53.73 44.29 53.59 47.93 51.92 51.56 50.26 54.4 48.68 57.24 47.1 59.61 45.47 61.98 43.85 63.93 42.19 65.89 40.53 68.03 38.58 70.18 36.64 70.94 36.36 71.7 36.09 72.47 36.31 73.24 36.54 73.74 37.18 74.23 37.81 74.26 38.62 74.28 39.42 73.77 39.62 73.26 39.83 70.8 40.78 68.34 41.73 65.01 43.01 61.69 44.28 59.07 45.31 56.45 46.34 52.67 47.53 48.88 48.73 45.61 49.99 42.35 51.26 39.3 52.8 36.26 54.34 33.56 56.1 30.85 57.86 28.59 59.47 26.32 61.07 24.3 62.48 22.28 63.88 21.59 64.1 20.9 64.33 20.21 64.1 19.52 63.87 19.09 63.29 18.67 62.7 18.67 61.97 18.68 61.25 19.22 61.21 19.77 61.17 22.32 60.74 24.87 60.31 28.26 59.06 31.65 57.82 34.57 56.55 37.5 55.29 40.84 53.75 44.19 52.2 47.31 50.87 50.44 49.54 53.04 48.11 55.65 46.68 58.19 44.76 60.74 42.85 62.15 40.93 63.56 39.02 65.04 37.08 66.52 35.15 67.13 33.3 67.75 31.45 66.33 29.96 64.91 28.47 62.6 29.54 60.29 30.62 56.99 32.11 53.69 33.6 50.25 35.12 46.81 36.64 43.36 38.71 39.91 40.78 37.09 42.83 34.27 44.88 30.9 47.63 27.52 50.39 24.34 53.18 21.15 55.98 20.02 57.75 18.9 59.53 21.92 59.56 24.95 59.59 29.7 56.66 34.44 53.74 37.95 51.1 41.46 48.47 44.58 46.34 47.7 44.21 50.88 41.79 54.06 39.37 56.67 37.06 59.28 34.74 61.71 32.01 64.14 29.28 65.84 26.92 67.53 24.56 68.71 23.31 69.89 22.07 69.61 23.23 69.32 24.39 67.46 26.02 65.6 27.64 63.01 29.34 60.42 31.03 56.54 33.24 52.66 35.45 47.64 37.33 42.62 39.21 39.61 40.53 36.59 41.85 34.59 43.01 32.58 44.16 30.55 45.78 28.52 47.41 26.72 49.25 24.91 51.09 24.23 51.44 23.55 51.79 22.8 51.68 22.04 51.57 21.49 51.03 20.95 50.49 20.82 49.74 20.7 48.98 21.4 48.95 22.1 48.92 25.08 48.83 28.06 48.75 31.07 48.42 34.08 48.09 36.1 46.47 38.12 44.85 41.24 42.38 44.35 39.92 46.84 37.7 49.32 35.49 51.43 34.02 53.53 32.55 56.21 29.87 58.89 27.19 59.31 26.45 59.73 25.72 60.5 25.38 61.27 25.03 62.1 25.2 62.92 25.38 63.49 26 64.05 26.63 63.8 27.15 63.55 27.68 61.62 29.78 59.7 31.88 55.56 33.92 51.41 35.97 48.37 38.05 45.33 40.12 41.02 43.2 36.71 46.28 32.32 49.96 27.94 53.64 25.06 55.5 22.17 57.37 20.16 58.81 18.15 60.25 16.91 61.89 15.68 63.53 15.06 63.81 14.44 64.09 13.78 63.95 13.11 63.82 12.66 63.32 12.2 62.82 12.12 62.14 12.05 61.47 12.58 61.15 13.1 60.83 15.28 59.59 17.46 58.35 20.04 57.31 22.62 56.27 25.58 55.41 28.54 54.55 31.08 53.86 33.61 53.18 36.13 52.64 38.65 52.1 40.91 50.83 43.17 49.57 45.38 48.43 47.58 47.28 49.27 46.67 50.96 46.06 50.18 47.76 49.4 49.46 46.08 50.81 42.76 52.17 40.1 53.42 37.44 54.67 35.13 56.04 32.81 57.4 29.6 60.72 26.38 64.03 25.13 64.35 23.87 64.66 22.87 63.82 21.88 62.99 21.98 61.69 22.07 60.4 23.17 59.72 24.27 59.03 25.47 59.52 26.67 60.01 26.98 61.26 27.29 62.52 26.46 63.51 25.63 64.51 24.33 64.41 23.04 64.32 22.35 63.22 21.67 62.12 22.16 60.92 22.64 59.72 26.35 56.36 30.06 53.01 32.55 51.54 35.05 50.07 38.76 48.03 42.48 45.99 45.16 44.68 47.84 43.37 50.38 43.69 52.93 44.02 53.24 46.2 53.56 48.39 51.63 50.03 49.69 51.67 47.53 52.67 45.36 53.67 42.51 55.16 39.65 56.66 37.23 57.18 34.81 57.71 32.34 58.35 29.87 58.99 27.14 59.83 24.42 60.66 22.05 61.62 19.67 62.57 17.57 63.2 15.47 63.83 14.95 63.96 14.44 64.09 13.78 63.95 13.11 63.82 12.66 63.32 12.2 62.82 12.12 62.14 12.05 61.47 12.39 60.88 12.72 60.29 14.39 58.84 16.07 57.39 18.25 56.01 20.43 54.64 23.17 52.9 25.92 51.17 30.32 47.44 34.72 43.71 38.79 40.25 42.85 36.8 46.01 34.25 49.17 31.7 53.32 29.31 57.46 26.92 58.6 26.32 59.73 25.72 60.5 25.38 61.27 25.03 62.1 25.2 62.92 25.38 63.49 26 64.05 26.63 64.15 27.47 64.24 28.31 62.91 30.48 61.59 32.66 59.02 34.21 56.44 35.76 54.18 37.11 51.92 38.47 49.45 40.69 46.98 42.9 44.01 45.79 41.04 48.68 38.27 50.8 35.5 52.91 32.56 53.63 29.62 54.35 27.16 53.41 24.69 52.48 24.12 52.13 23.55 51.79 22.8 51.68 22.04 51.57 21.49 51.03 20.95 50.49 20.82 49.74 20.7 48.98 21.04 48.3 21.38 47.61 23.72 45.81 26.05 44 28.46 42.4 30.87 40.81 33.07 39.81 35.27 38.81 38.35 37.52 41.43 36.24 46.01 34.28 50.59 32.33 54.22 29.77 57.85 27.21 60.41 25.36 62.97 23.52 65.76 21.89 68.56 20.25 70.94 20.78 73.32 21.3 73.31 22.66 73.31 24.03 71.92 25.52 70.52 27.01 68.62 29.27 66.71 31.53 64.11 34.44 61.51 37.34 58.78 39.65 56.05 41.96 52.8 44.46 49.54 46.97 46.49 49 43.44 51.03 39.97 53.88 36.51 56.72 32.66 59.77 28.81 62.81 26.12 64.23 23.44 65.64 21.1 65.62 18.76 65.61 16.52 63.45 14.29 61.29 14.4 59.22 14.52 57.14 16.69 55.31 18.87 53.47 22.15 50.7 25.43 47.93 28.81 44.93 32.2 41.94 35.1 39.88 38 37.82 41.55 35.39 45.1 32.96 48.36 31.27 51.61 29.58 54.78 27.73 57.94 25.88 60.99 24.43 64.04 22.98 67.2 23.7 70.36 24.41 72.03 27.18 73.7 29.94 73.17 32.21 72.65 34.49 71.34 36.23 70.04 37.98 68.46 39.84 66.88 41.71 65.06 43.8 63.23 45.9 60.4 48.1 57.56 50.29 54.79 51.75 52.02 53.21 48.99 54.51 45.97 55.8 42.65 57.58 39.33 59.35 36.39 60.76 33.44 62.17 30.22 63.51 26.99 64.84 24.5 64.73 22 64.62 21.45 64.48 20.9 64.33 20.21 64.1 19.52 63.87 19.09 63.29 18.67 62.7 18.67 61.97 18.68 61.25 19.1 60.66 19.53 60.08 21.75 58.85 23.98 57.63 26.35 56.09 28.72 54.55 31.61 52.72 34.49 50.89 37.68 49.24 40.87 47.59 44.16 46.23 47.45 44.87 51 43.35 54.54 41.83 56.93 40.78 59.33 39.74 61.88 38.45 64.44 37.15 67.33 36.67 70.22 36.18 70.96 36.13 71.7 36.09 72.47 36.31 73.24 36.54 73.74 37.18 74.23 37.81 74.26 38.62 74.28 39.42 73.83 40.09 73.38 40.75 71.32 42.28 69.27 43.8 66.94 45.7 64.6 47.6 62.14 49.34 59.68 51.08 56.77 53 53.87 54.92 49.8 56.48 45.72 58.03 42.8 58.07 39.87 58.11 40.06 55.27 40.24 52.43 42.91 49.12 45.57 45.81 47.84 44.1 50.11 42.39 52.32 41.2 54.53 40.01 56.49 38.58 58.44 37.15 61.04 35.3 63.64 33.45 64.35 32.96 65.07 32.47 65.8 32.63 66.53 32.79 67.02 33.35 67.52 33.91 67.59 34.66 67.67 35.4 67.29 36.05 66.91 36.69 64.49 38.55 62.07 40.41 59.21 42.31 56.35 44.22 53.87 46.1 51.38 47.97 48.29 50.77 45.21 53.58 42.09 56.05 38.97 58.53 36.36 59.9 33.74 61.27 31.42 61.56 29.1 61.85 28.53 61.86 27.96 61.87 27.25 61.48 26.53 61.09 26.18 60.35 25.83 59.61 25.98 58.81 26.13 58.01 26.72 57.45 27.31 56.88 31.83 54.84 36.34 52.79 38.52 52.29 40.7 51.79 43.57 50.95 46.44 50.12 49.26 48.71 52.08 47.3 54.66 46.04 57.24 44.78 59.57 43.99 61.89 43.2 64.68 42.18 67.48 41.15 68.22 40.87 68.97 40.58 69.66 40.87 70.35 41.15 70.74 41.78 71.13 42.42 71.08 43.16 71.02 43.9 70.54 44.47 70.06 45.04 66.42 47.46 62.78 49.87 59.34 52.2 55.91 54.52 52.86 56.38 49.81 58.24 46.8 60.37 43.79 62.51 41.47 63.66 39.15 64.81 36.9 65.42 34.65 66.04 31.84 64.98 29.02 63.91 29.4 60.43 29.78 56.95 31.33 54.57 32.88 52.19 35.36 50.25 37.84 48.3 40.47 46.63 43.11 44.95 45.38 43.49 47.66 42.03 50.75 39.37 53.83 36.71 57.13 35.54 60.42 34.37 62.16 35.85 63.91 37.32 63.92 39.65 63.93 41.98 63.88 45.21 63.83 48.44 63.93 51.53 64.03 54.62 64.63 57.56 65.22 60.49 65.47 63.12 65.71 65.75 64.04 67.98 62.37 70.22 59.98 72 57.6 73.78 55.41 75.86 53.22 77.95 52.09 77.72 50.97 77.49 52.16 76.44 53.35 75.38 55.36 73.71 57.38 72.04 59.04 70.38 60.7 68.73 62.3 66.76 63.89 64.79 65.42 62.94 66.95 61.09 68.96 59.57 70.96 58.05 71.5 57.69 72.05 57.33 72.65 57.97 73.26 58.6 73.37 59.47 73.49 60.34 73.07 61.11 72.65 61.88 71.86 62.26 71.07 62.64 67.36 63.27 63.65 63.9 60.94 64.74 58.24 65.58 55.96 66.43 53.68 67.28 50.27 69.41 46.85 71.54 44.04 72.43 41.22 73.32 40.38 71.73 39.53 70.14 41.31 68.64 43.09 67.14 45.21 65.91 47.33 64.68 49.6 63.1 51.87 61.53 54.69 59.63 57.52 57.73 60.42 55.76 63.31 53.8 66.22 52.28 69.12 50.76 72.06 49.76 75.01 48.76 75.75 48.54 76.48 48.32 77.12 48.48 77.76 48.64 78.18 49.14 78.6 49.64 78.65 50.3 78.69 50.95 78.35 51.51 78 52.06 76.06 53.29 74.12 54.51 71.33 57.02 68.53 59.54 65.92 61.72 63.32 63.9 60.05 67.14 56.78 70.38 51.82 75.2 46.86 80.01 43.15 82.96 39.45 85.9 36.99 87.12 34.54 88.34 31.26 90.32 27.99 92.31 27.08 92.89 26.17 93.48 25.55 93.47 24.93 93.46 24.43 93.09 23.93 92.71 23.75 92.12 23.57 91.52 23.77 90.93 23.97 90.34 25.68 88.24 27.39 86.14 29.23 84.84 31.06 83.53 34.14 81.35 37.22 79.17 42.1 75.51 46.99 71.85 51.22 68.46 55.45 65.07 59.18 61.66 62.9 58.24 66.68 55.06 70.46 51.89 73.38 49.98 76.29 48.06 79.78 47.67 83.28 47.27 83.34 50.18 83.41 53.08 80.79 55.19 78.17 57.3 76.1 58.46 74.02 59.61 70.72 61.38 67.42 63.14 63.76 65.08 60.1 67.03 56.48 68.75 52.86 70.47 49.19 72.1 45.52 73.73 43 74.82 40.47 75.9 37.07 77.62 33.67 79.34 32.64 79 31.6 78.65 32.63 77.21 33.67 75.77 35.14 74.34 36.61 72.92 38.63 70.97 40.65 69.02 44.23 65.53 47.82 62.04 51.06 59.11 54.31 56.18 57.81 53.15 61.3 50.13 65.88 45.85 70.47 41.57 73.63 38.68 76.79 35.8 79 34.04 81.2 32.28 84.25 30.51 87.29 28.74 88.35 28.2 89.41 27.65 89.48 27.62 89.55 27.59 90.25 27.83 90.95 28.08 91.37 28.68 91.8 29.29 91.78 30.03 91.77 30.77 91.32 31.36 90.87 31.96 88.02 33.3 85.17 34.65 82.8 35.63 80.42 36.61 77.61 38.05 74.8 39.5 71.89 41.57 68.98 43.64 65.12 46.19 61.26 48.74 56.37 52.31 51.48 55.89 47.72 58.18 43.96 60.46 41.25 62.82 38.54 65.17 35.92 67.95 33.3 70.74 30.73 73.49 28.16 76.24 27.52 76.92 26.89 77.6 26.03 77.72 25.18 77.85 24.41 77.44 23.65 77.03 23.27 76.26 22.89 75.48 23.04 74.63 23.19 73.78 26.48 69.98 29.77 66.19 31.89 64.2 34.02 62.21 37.8 59.75 41.57 57.3 44.36 55.69 47.15 54.09 49.18 52.9 51.22 51.7 52.99 49.91 54.76 48.12 56.77 46.07 58.79 44.02 60.47 43.98 62.16 43.94 60.62 44.47 59.08 44.99 57.03 45.66 54.99 46.33 52.2 47.41 49.41 48.5 47.03 49.77 44.65 51.04 42.04 52.81 39.42 54.57 36.87 56.08 34.33 57.59 32.21 58.68 30.09 59.76 27.92 60.3 25.74 60.85 25.15 60.83 24.55 60.81 24.08 60.45 23.61 60.09 23.44 59.52 23.28 58.95 23.48 58.39 23.68 57.82 24.17 57.49 24.66 57.15 26.83 56.61 Z"></path><path fill="#000000" d="M 29.793749999999996 40.2048748046875 Q 29.79 40.2 28.71 40.38 27.63 40.56 26.21 41.07 24.79 41.59 22.86 42.31 20.92 43.04 19.02 43.85 17.12 44.67 16.3 46.83 15.48 49 15.27 51.23 15.06 53.46 15.38 55.67 15.7 57.88 17.12 59.41 18.53 60.93 20.53 61.49 22.53 62.04 26.62 59.25 30.71 56.46 31.83 56.58 32.94 56.71 33.77 57.47 34.59 58.23 34.82 59.33 35.04 60.43 34.57 61.45 34.11 62.47 33.97 61.88 33.82 61.3 32.89 59.74 31.96 58.19 30.81 58.32 29.66 58.44 32.2 56.22 34.74 54.01 35.87 54.15 36.99 54.29 37.82 55.06 38.65 55.84 38.86 56.95 39.08 58.07 38.6 59.1 38.11 60.12 38.63 59.24 39.15 58.35 38.56 59.91 37.98 61.47 36.37 61.92 34.76 62.36 33.46 61.32 32.15 60.28 32.23 58.62 32.3 56.95 33.69 56.03 35.08 55.11 36.64 55.7 38.21 56.28 38.65 57.89 39.09 59.5 38.06 60.8 37.02 62.11 35.35 62.03 33.68 61.96 32.77 60.57 31.85 59.18 33.77 57.25 35.7 55.33 36.35 54.81 36.99 54.29 37.82 55.06 38.65 55.84 38.86 56.95 39.08 58.07 38.6 59.1 38.11 60.12 37.12 60.67 36.13 61.22 33.72 61.99 31.31 62.77 31.76 60.54 32.2 58.31 32.57 57.51 32.94 56.71 33.77 57.47 34.59 58.23 34.82 59.33 35.04 60.43 34.57 61.45 34.11 62.47 33.13 63.02 32.16 63.57 30.36 64.89 28.57 66.21 26.11 67.27 23.65 68.33 21.18 67.94 18.71 67.55 16.65 66.59 14.6 65.63 12.73 64.46 10.86 63.29 9.79 60.88 8.72 58.46 8.53 55.94 8.34 53.42 8.73 50.89 9.11 48.36 9.63 45.87 10.15 43.37 11.35 41.67 12.55 39.96 15.34 39.23 18.13 38.49 20.71 37.84 23.29 37.19 25.31 36.86 27.33 36.54 28.56 36.57 29.79 36.6 30.65 36.6 31.5 36.6 32.03 36.77 32.56 36.94 32.89 37.39 33.22 37.84 33.22 38.4 33.22 38.96 32.89 39.41 32.56 39.86 32.03 40.03 31.5 40.2 30.65 40.2 Z"></path><path fill="#000000" d="M 36.631370849898474 57.868629150101526 Q 36.63 57.87 36.86 58.31 37.08 58.75 37 59.24 36.93 59.73 36.58 60.08 36.23 60.43 35.74 60.5 35.25 60.58 34.81 60.36 34.37 60.13 34.14 59.69 33.92 59.25 34 58.76 34.07 58.27 34.42 57.92 34.77 57.57 35.26 57.5 35.75 57.42 36.19 57.64 36.63 57.87 36.63 57.87 Z"></path><path fill="#000000" d="M 37.30579196739197 63.995312500000004 Q 37.31 64 37.42 65.27 37.54 66.55 37.68 68.04 37.81 69.52 38.14 72 38.47 74.49 39.55 76.17 40.64 77.85 43.18 78.27 45.72 78.7 49.05 78.12 52.38 77.54 55.08 76.79 57.77 76.03 59.62 75.15 61.46 74.28 62.01 72.01 62.57 69.73 61.99 67.04 61.41 64.36 59.61 62.47 57.81 60.59 54.8 59.53 51.79 58.46 52.01 56.83 52.22 55.19 53.67 54.4 55.12 53.62 56.61 54.32 58.1 55.03 58.4 56.65 58.7 58.27 57.57 59.47 56.43 60.67 54.8 60.46 53.16 60.24 52.37 58.8 51.59 57.35 52.29 55.86 53 54.37 54.62 54.07 56.24 53.76 57.44 54.9 58.64 56.03 56.95 55.32 55.25 54.62 56.94 54 58.62 53.38 61.08 54.48 63.53 55.58 64.98 57.53 66.43 59.48 67.51 62.01 68.59 64.53 69.12 67.52 69.66 70.5 69.55 73.05 69.44 75.59 67.7 77.81 65.97 80.02 63.9 80.85 61.84 81.67 59.86 82.33 57.89 82.99 55.2 83.53 52.51 84.08 50.06 84.8 47.6 85.53 45.42 85.35 43.24 85.16 41.01 84.14 38.78 83.12 36.88 81.75 34.97 80.38 34.08 77.71 33.19 75.03 33.19 72.27 33.19 69.52 33.32 68.04 33.46 66.55 33.58 65.27 33.69 64 33.69 63.1 33.69 62.2 33.87 61.67 34.04 61.14 34.49 60.81 34.94 60.48 35.5 60.48 36.06 60.48 36.51 60.81 36.96 61.14 37.13 61.67 37.31 62.2 37.31 63.1 Z"></path><path fill="#000000" d="M 32.46539569952298 39.35217527264168 Q 32.47 39.35 31.63 38.21 30.79 37.06 29.81 35.62 28.82 34.19 27.8 31.9 26.77 29.62 26.04 27.15 25.3 24.69 25.2 22.44 25.1 20.19 25.37 18.14 25.63 16.09 26.9 14.33 28.16 12.57 30.05 10.9 31.93 9.24 33.71 8.09 35.49 6.94 37.72 6.5 39.95 6.07 42.92 6.91 45.89 7.74 47.98 9.54 50.08 11.34 51.43 13.47 52.78 15.6 53.43 18.01 54.08 20.42 54.13 22.76 54.19 25.11 54.2 27.45 54.21 29.79 54.21 32.81 54.21 35.83 53.44 37.33 52.68 38.83 51.02 39.09 49.35 39.36 48.16 38.17 46.97 36.98 47.24 35.31 47.5 33.65 49 32.89 50.5 32.12 52 32.89 53.5 33.65 53.76 35.31 54.03 36.98 52.84 38.17 51.65 39.36 49.98 39.09 48.32 38.83 47.56 37.33 46.79 35.83 46.8 32.52 46.8 29.2 46.81 26.76 46.81 24.32 46.71 22.13 46.6 19.95 45.66 18.15 44.72 16.36 42.69 15.03 40.66 13.71 38.52 14.2 36.37 14.69 34.45 16.06 32.53 17.43 32.01 19.55 31.48 21.68 31.44 23.96 31.4 26.23 31.94 28.73 32.47 31.22 33.14 32.81 33.8 34.4 34.42 36.01 35.03 37.62 35.51 37.98 35.98 38.33 36.12 38.79 36.25 39.25 36.08 39.7 35.92 40.15 35.52 40.42 35.13 40.69 34.65 40.67 34.17 40.65 33.79 40.36 33.42 40.07 32.94 39.71 Z"></path><path fill="#000000" d="M 50.8188418466175 30.015562531598825 Q 50.82 30.02 51.9 29.34 52.99 28.67 54.41 28.42 55.83 28.17 57.96 27.83 60.09 27.48 62.52 26.77 64.95 26.05 67.43 26.19 69.92 26.33 72.56 27.15 75.21 27.97 77.18 28.71 79.14 29.45 80.91 30.78 82.69 32.11 84.12 33.81 85.55 35.52 86.09 37.88 86.63 40.24 86.79 42.93 86.95 45.63 85.91 48.24 84.87 50.86 82.6 52.94 80.34 55.02 78.1 56.08 75.85 57.15 73.44 58.38 71.02 59.62 68.61 60.27 66.2 60.91 62.74 60.69 59.27 60.47 57.78 59.72 56.3 58.96 56.03 57.32 55.77 55.67 56.95 54.49 58.13 53.31 59.78 53.57 61.42 53.83 62.18 55.31 62.94 56.8 62.18 58.28 61.43 59.77 59.78 60.03 58.14 60.29 56.95 59.12 55.77 57.94 56.03 56.29 56.29 54.64 57.78 53.89 59.26 53.13 62.11 53.35 64.96 53.57 67.14 53.16 69.33 52.76 71.21 51.7 73.09 50.65 75.08 49.52 77.07 48.39 78.68 46.24 80.28 44.09 79.84 41.07 79.4 38.05 77.34 36.52 75.28 34.99 73.26 34.11 71.24 33.23 68.62 32.79 66 32.35 63.15 32.6 60.3 32.85 57.95 32.82 55.6 32.79 54.2 32.86 52.81 32.93 51.8 33.26 50.79 33.59 50.23 33.74 49.68 33.89 49.16 33.71 48.64 33.54 48.32 33.09 48 32.64 48 32.08 48.01 31.53 48.33 31.09 48.66 30.65 49.19 30.48 49.72 30.31 50.27 30.16 Z"></path><path fill="#e2b2f5" d="M 39.61058344304729 28.300390625000002 Q 39.61 28.3 39.73 29.73 39.85 31.16 40.05 33.52 40.25 35.88 40.64 38.39 41.04 40.9 42.02 44.75 43 48.6 42.73 49.48 42.45 50.37 41.7 50.92 40.96 51.48 40.03 51.49 39.1 51.5 38.35 50.96 37.59 50.42 37.53 49.86 37.47 49.3 37.17 47.04 36.88 44.77 36.51 42.52 36.13 40.27 35.98 38.13 35.83 36 35.39 33.69 34.96 31.39 34.55 29.29 34.14 27.18 33.77 24.84 33.4 22.51 33.69 19.86 33.98 17.22 34.32 16.15 34.67 15.09 35.57 14.43 36.48 13.77 37.6 13.77 38.72 13.77 39.63 14.43 40.53 15.09 40.91 16.61 41.28 18.14 40.98 19.76 40.67 21.38 39.18 22.09 37.69 22.79 36.25 22 34.8 21.21 34.59 19.58 34.38 17.94 35.58 16.81 36.77 15.68 38.39 15.98 40.02 16.29 40.72 17.78 41.43 19.27 40.64 20.72 39.85 22.16 38.21 22.37 36.58 22.58 35.44 21.39 34.31 20.19 34.44 18.19 34.58 16.19 34.62 15.64 34.67 15.09 35.57 14.43 36.48 13.77 37.6 13.77 38.72 13.77 39.63 14.43 40.53 15.09 40.88 16.15 41.22 17.22 40.6 20.32 39.97 23.42 40.69 25.57 41.42 27.71 41.55 29.78 41.68 31.84 42.07 33.98 42.45 36.11 42.56 38.17 42.67 40.23 42.9 42.43 43.12 44.62 42.89 46.92 42.66 49.21 42.55 49.79 42.45 50.37 41.7 50.92 40.96 51.48 40.03 51.49 39.1 51.5 38.35 50.96 37.59 50.42 37.29 49.54 36.99 48.67 36.78 47.74 36.56 46.81 36.32 44.15 36.08 41.49 35.91 38.73 35.73 35.97 35.74 33.57 35.75 31.17 35.87 29.73 35.99 28.3 35.99 27.45 35.99 26.6 36.16 26.07 36.34 25.54 36.79 25.21 37.24 24.88 37.8 24.88 38.36 24.88 38.81 25.21 39.26 25.54 39.44 26.07 39.61 26.6 39.61 27.45 Z"></path><path fill="#e2b2f5" d="M 42.93137084989847 17.568629150101522 Q 42.93 17.57 43.16 18.01 43.38 18.45 43.3 18.94 43.23 19.43 42.88 19.78 42.53 20.13 42.04 20.2 41.55 20.28 41.11 20.06 40.67 19.83 40.44 19.39 40.22 18.95 40.3 18.46 40.37 17.97 40.72 17.62 41.07 17.27 41.56 17.2 42.05 17.12 42.49 17.34 42.93 17.57 42.93 17.57 Z"></path><path fill="#e2b2f5" d="M 43.654658348083494 20.70625 Q 43.65 20.71 43.48 21.25 43.3 21.8 42.84 22.13 42.37 22.47 41.8 22.47 41.23 22.47 40.76 22.13 40.3 21.8 40.25 21.46 40.19 21.12 39.98 19.66 39.76 18.2 39.96 17.6 40.15 17 40.66 16.63 41.17 16.26 41.8 16.26 42.43 16.26 42.94 16.63 43.45 17 43.51 17.49 43.57 17.98 43.8 20.38 44.02 22.78 44.2 26.98 44.37 31.18 44.13 31.94 43.88 32.69 43.24 33.16 42.59 33.63 41.8 33.63 41.01 33.63 40.36 33.16 39.72 32.69 39.64 31.94 39.57 31.19 39.29 25.56 39.01 19.93 39.27 19.11 39.54 18.29 40.24 17.78 40.94 17.28 41.8 17.28 42.66 17.28 43.36 17.78 44.06 18.29 44.14 18.94 44.22 19.59 44.55 23.69 44.87 27.79 44.58 28.69 44.28 29.59 43.52 30.15 42.75 30.71 41.8 30.71 40.85 30.71 40.08 30.15 39.32 29.59 39.24 29.08 39.16 28.56 38.9 24.77 38.63 20.98 38.94 20.05 39.24 19.12 40.03 18.54 40.82 17.97 41.8 17.97 42.78 17.97 43.57 18.54 44.36 19.12 44.43 20.01 44.51 20.9 44.72 24.2 44.94 27.51 44.97 30.3 45 33.1 44.69 34.04 44.39 34.98 43.59 35.56 42.79 36.14 41.8 36.14 40.81 36.14 40.01 35.56 39.21 34.98 39.14 34.32 39.06 33.67 38.85 30.78 38.63 27.9 38.66 24.31 38.69 20.72 38.99 19.81 39.28 18.9 40.06 18.33 40.84 17.77 41.8 17.77 42.76 17.77 43.54 18.33 44.32 18.9 44.39 19.82 44.46 20.73 44.73 25.77 45 30.81 44.69 31.75 44.39 32.69 43.59 33.27 42.79 33.85 41.8 33.85 40.81 33.85 40.01 33.27 39.21 32.69 39.14 31.86 39.07 31.04 38.89 25.02 38.71 18.99 39.35 17.74 39.99 16.5 41.37 16.28 42.75 16.06 43.75 17.05 44.74 18.04 44.52 19.42 44.3 20.81 43.05 21.44 41.8 22.08 40.55 21.44 39.3 20.81 39.08 19.42 38.86 18.04 39.85 17.05 40.85 16.06 42.23 16.28 43.61 16.5 44.25 17.74 44.89 18.99 44.71 25.02 44.53 31.04 44.46 31.86 44.39 32.69 43.59 33.27 42.79 33.85 41.8 33.85 40.81 33.85 40.01 33.27 39.21 32.69 38.91 31.75 38.6 30.81 38.87 25.77 39.14 20.73 39.21 19.82 39.28 18.9 40.06 18.33 40.84 17.77 41.8 17.77 42.76 17.77 43.54 18.33 44.32 18.9 44.61 19.81 44.91 20.72 44.94 24.31 44.97 27.9 44.75 30.78 44.54 33.67 44.46 34.32 44.39 34.98 43.59 35.56 42.79 36.14 41.8 36.14 40.81 36.14 40.01 35.56 39.21 34.98 38.91 34.04 38.6 33.1 38.63 30.3 38.66 27.51 38.88 24.2 39.09 20.9 39.17 20.01 39.24 19.12 40.03 18.54 40.82 17.97 41.8 17.97 42.78 17.97 43.57 18.54 44.36 19.12 44.66 20.05 44.97 20.98 44.7 24.77 44.44 28.56 44.36 29.08 44.28 29.59 43.52 30.15 42.75 30.71 41.8 30.71 40.85 30.71 40.08 30.15 39.32 29.59 39.02 28.69 38.73 27.79 39.05 23.69 39.38 19.59 39.46 18.94 39.54 18.29 40.24 17.78 40.94 17.28 41.8 17.28 42.66 17.28 43.36 17.78 44.06 18.29 44.33 19.11 44.59 19.93 44.31 25.56 44.03 31.19 43.96 31.94 43.88 32.69 43.24 33.16 42.59 33.63 41.8 33.63 41.01 33.63 40.36 33.16 39.72 32.69 39.47 31.94 39.23 31.18 39.4 26.98 39.58 22.78 39.8 20.38 40.03 17.98 40.09 17.49 40.15 17 40.66 16.63 41.17 16.26 41.8 16.26 42.43 16.26 42.94 16.63 43.45 17 43.64 17.6 43.84 18.2 43.62 19.66 43.41 21.12 43.35 21.46 43.3 21.8 42.84 22.13 42.37 22.47 41.8 22.47 41.23 22.47 40.76 22.13 40.3 21.8 40.12 21.25 39.95 20.71 39.95 19.7 39.95 18.7 40.12 18.15 40.3 17.61 40.76 17.27 41.23 16.94 41.8 16.94 42.37 16.94 42.84 17.27 43.3 17.61 43.48 18.15 43.65 18.7 43.65 19.7 Z"></path><path fill="#e2b2f5" d="M 19.630056389617614 49.416152247352535 Q 19.63 49.42 20.55 49.77 21.47 50.13 20.92 49.11 20.36 48.09 20.68 47.4 21.01 46.72 21.67 46.36 22.34 46 23.09 46.1 23.84 46.19 24.39 46.71 24.94 47.23 25.18 49.73 25.42 52.22 25.17 52.99 24.92 53.76 24.27 54.24 23.61 54.72 22.8 54.72 21.99 54.72 21.34 54.24 20.68 53.77 20.39 51.77 20.09 49.77 20.35 48.97 20.61 48.18 21.29 47.69 21.96 47.19 22.8 47.19 23.64 47.19 24.31 47.69 24.99 48.18 22.55 49.17 20.12 50.17 20.37 49.38 20.63 48.59 21.3 48.1 21.97 47.62 22.8 47.62 23.63 47.62 24.3 48.1 24.97 48.59 24.36 48.73 23.75 48.86 21.91 48.9 20.06 48.94 20.32 48.14 20.59 47.33 21.27 46.84 21.95 46.34 22.8 46.34 23.65 46.34 24.33 46.84 25.01 47.33 25.6 48.77 26.19 50.22 25.93 51.04 25.66 51.86 24.96 52.37 24.26 52.87 23.4 52.87 22.54 52.87 21.84 52.37 21.14 51.86 20.92 49.64 20.7 47.41 21.02 46.58 21.34 45.74 22.09 45.25 22.84 44.76 23.74 44.81 24.63 44.85 25.33 45.42 26.03 45.98 26.82 47.05 27.62 48.12 27.74 49.03 27.86 49.94 27.42 50.74 26.98 51.54 26.16 51.94 25.33 52.33 24.43 52.16 23.53 51.99 23.39 51.47 23.25 50.95 23.66 49.25 24.07 47.55 25.05 46.55 26.02 45.54 26.97 45.61 27.91 45.69 28.63 46.3 29.35 46.92 29.57 47.84 29.79 48.76 29.43 49.63 29.06 50.5 28.59 49.94 28.12 49.38 26.59 47.93 25.06 46.47 25.56 45.64 26.05 44.81 26.94 44.43 27.83 44.05 28.77 44.26 29.71 44.47 30.35 45.2 30.99 45.93 31.17 47.1 31.36 48.27 31.29 49.25 31.23 50.23 30.6 50.98 29.98 51.73 29.03 51.97 28.08 52.21 27.17 51.85 26.26 51.49 28.81 49.45 31.36 47.41 31.3 48.38 31.23 49.36 30.61 50.11 29.98 50.86 29.04 51.1 28.09 51.34 27.19 50.98 26.28 50.62 28.82 49.51 31.36 48.39 31.3 49.37 31.24 50.34 30.61 51.09 29.99 51.85 29.04 52.09 28.09 52.33 27.19 51.97 26.28 51.6 26.07 51.07 25.85 50.53 24.83 48.42 23.8 46.31 23.97 45.32 24.14 44.33 24.86 43.64 25.58 42.94 26.58 42.8 27.57 42.66 28.45 43.13 29.34 43.59 29.25 46.23 29.16 48.86 28.47 49.59 27.78 50.33 26.79 50.52 25.8 50.71 24.89 50.28 23.98 49.85 23.5 48.97 23.01 48.08 26 48.33 28.99 48.57 28.3 49.3 27.62 50.03 26.63 50.22 25.65 50.41 24.74 49.98 23.83 49.56 23.35 48.68 22.87 47.8 23.48 48.06 24.08 48.31 25.96 48.83 27.84 49.34 27.32 50.22 26.81 51.11 25.87 51.51 24.94 51.92 23.94 51.71 22.95 51.49 22.27 50.73 21.59 49.97 21.02 47.89 20.45 45.81 20.75 44.82 21.04 43.83 21.86 43.19 22.68 42.56 23.71 42.53 24.75 42.5 25.6 43.09 26.46 43.67 23.38 44.96 20.31 46.25 20.6 45.26 20.89 44.26 21.71 43.63 22.53 43 23.56 42.97 24.59 42.94 25.45 43.53 26.3 44.11 25.55 44.35 24.8 44.59 22.52 44.97 20.25 45.34 20.48 44.33 20.71 43.31 21.49 42.63 22.28 41.94 23.31 41.85 24.35 41.75 25.24 42.28 26.13 42.82 26.1 43.42 26.07 44.02 25.89 46.63 25.71 49.24 24.9 49.9 24.1 50.57 23.05 50.63 22.01 50.7 21.12 50.14 20.24 49.58 19.86 48.61 19.47 47.63 20.15 47.73 20.83 47.82 21.28 49.46 21.72 51.1 20.75 50.68 19.79 50.25 19.25 49.34 18.72 48.43 18.82 47.39 18.93 46.34 19.63 45.55 20.33 44.76 20.37 45.39 20.41 46.02 21.89 48.54 23.37 51.07 22.54 51.74 21.72 52.42 20.65 52.48 19.59 52.54 18.69 51.97 17.79 51.39 17.4 50.39 17.02 49.4 16.99 48.68 16.97 47.96 17.17 46.91 17.37 45.86 18.15 45.13 18.94 44.4 20 44.27 21.06 44.13 21.99 44.65 22.93 45.17 23.4 47.14 23.87 49.11 23.53 50.13 23.18 51.15 22.31 51.77 21.44 52.39 20.37 52.37 19.29 52.36 18.43 51.72 17.57 51.09 17.26 49.01 16.94 46.93 17.27 45.91 17.6 44.89 18.46 44.26 19.33 43.63 20.4 43.63 21.47 43.63 22.33 44.26 23.2 44.89 23.05 45.4 22.91 45.91 23.01 47.66 23.11 49.41 22.73 50.43 22.34 51.44 21.43 52.04 20.52 52.63 19.44 52.58 18.35 52.52 17.51 51.84 16.66 51.16 19.88 50.08 23.11 49.01 22.72 50.02 22.34 51.04 21.43 51.63 20.52 52.22 19.44 52.17 18.35 52.12 17.51 51.44 16.66 50.76 19.89 50.43 23.11 50.11 22.72 51.12 22.34 52.14 21.43 52.73 20.52 53.33 19.44 53.27 18.35 53.22 17.5 52.54 16.66 51.86 16.36 50.01 16.06 48.16 16.4 47.12 16.74 46.08 17.62 45.44 18.51 44.79 19.6 44.79 20.69 44.79 21.58 45.44 22.46 46.08 19.26 47.62 16.07 49.16 16.4 48.13 16.74 47.09 17.62 46.44 18.51 45.8 19.6 45.8 20.69 45.8 21.58 46.44 22.46 47.09 21.66 47.3 20.86 47.52 18.46 47.14 16.05 46.76 16.39 45.71 16.73 44.67 17.62 44.03 18.5 43.38 19.6 43.38 20.7 43.38 21.58 44.03 22.47 44.67 22.82 46.93 23.16 49.19 22.82 50.24 22.48 51.29 21.59 51.94 20.7 52.58 19.6 52.58 18.5 52.58 17.61 51.94 16.72 51.29 16.37 49.32 16.02 47.36 16.36 46.31 16.7 45.25 17.6 44.6 18.49 43.95 19.6 43.95 20.71 43.95 21.6 44.6 22.5 45.25 22.84 47.16 23.18 49.07 22.44 50.51 21.7 51.96 20.1 52.22 18.49 52.47 17.34 51.32 16.2 50.17 16.45 48.57 16.7 46.96 18.15 46.22 19.6 45.49 21.05 46.22 22.5 46.96 22.75 48.57 23 50.17 21.86 51.32 20.71 52.47 19.1 52.22 17.5 51.96 16.76 50.51 16.02 49.07 16.36 47.16 16.7 45.25 17.6 44.6 18.49 43.95 19.6 43.95 20.71 43.95 21.6 44.6 22.5 45.25 22.84 46.31 23.18 47.36 22.83 49.32 22.48 51.29 21.59 51.94 20.7 52.58 19.6 52.58 18.5 52.58 17.61 51.94 16.72 51.29 16.38 50.24 16.04 49.19 16.38 46.93 16.73 44.67 17.62 44.03 18.5 43.38 19.6 43.38 20.7 43.38 21.58 44.03 22.47 44.67 22.81 45.71 23.15 46.76 20.74 47.14 18.34 47.52 17.54 47.3 16.74 47.09 17.62 46.44 18.51 45.8 19.6 45.8 20.69 45.8 21.58 46.44 22.46 47.09 22.8 48.13 23.13 49.16 19.94 47.62 16.74 46.08 17.62 45.44 18.51 44.79 19.6 44.79 20.69 44.79 21.58 45.44 22.46 46.08 22.8 47.12 23.14 48.16 22.74 50.15 22.34 52.14 21.43 52.73 20.52 53.33 19.44 53.27 18.35 53.22 17.5 52.54 16.66 51.86 16.37 50.81 16.09 49.76 19.21 50.4 22.34 51.04 21.43 51.63 20.52 52.22 19.44 52.17 18.35 52.12 17.51 51.44 16.66 50.76 16.38 49.71 16.09 48.66 19.22 50.05 22.34 51.44 21.43 52.04 20.52 52.63 19.44 52.58 18.35 52.52 17.51 51.84 16.66 51.16 16.38 50.11 16.09 49.06 16.85 46.98 17.6 44.89 18.46 44.26 19.33 43.63 20.4 43.63 21.47 43.63 22.33 44.26 23.2 44.89 23.53 45.9 23.86 46.92 23.52 49.03 23.18 51.15 22.31 51.77 21.44 52.39 20.37 52.37 19.29 52.36 18.43 51.72 17.57 51.09 17.25 50.06 16.93 49.04 17.15 47.45 17.37 45.86 18.15 45.13 18.94 44.4 20 44.27 21.06 44.13 21.99 44.65 22.93 45.17 23.38 46.13 23.84 47.1 23.04 49.26 22.25 51.41 21.98 51.92 21.72 52.42 20.65 52.48 19.59 52.54 18.69 51.97 17.79 51.39 17.4 50.39 17.02 49.4 17.29 48.37 17.56 47.34 19.76 46.25 21.96 45.17 21.32 47.02 20.68 48.87 20.23 49.56 19.79 50.25 19.25 49.34 18.72 48.43 18.82 47.39 18.93 46.34 19.63 45.55 20.33 44.76 21.36 44.54 22.39 44.31 22.59 44.59 22.79 44.87 23.42 46.96 24.05 49.06 24.07 49.81 24.1 50.57 23.05 50.63 22.01 50.7 21.12 50.14 20.24 49.58 19.86 48.61 19.47 47.63 19.73 46.62 19.99 45.61 20.35 44.46 20.71 43.31 21.49 42.63 22.28 41.94 23.31 41.85 24.35 41.75 25.24 42.28 26.13 42.82 26.54 43.77 26.95 44.73 24.68 44.64 22.4 44.56 21.65 44.41 20.89 44.26 21.71 43.63 22.53 43 23.56 42.97 24.59 42.94 25.45 43.53 26.3 44.11 26.65 45.09 27 46.06 24.02 44.94 21.04 43.83 21.86 43.19 22.68 42.56 23.71 42.53 24.75 42.5 25.6 43.09 26.46 43.67 26.81 44.65 27.15 45.62 27.1 47.86 27.04 50.09 26.92 50.6 26.81 51.11 25.87 51.51 24.94 51.92 23.94 51.71 22.95 51.49 22.27 50.73 21.59 49.97 21.49 48.95 21.39 47.93 23.94 48.43 26.49 48.93 27.05 49.48 27.62 50.03 26.63 50.22 25.65 50.41 24.74 49.98 23.83 49.56 23.35 48.68 22.87 47.8 22.99 46.81 23.12 45.81 25.45 48.07 27.78 50.33 26.79 50.52 25.8 50.71 24.89 50.28 23.98 49.85 23.5 48.97 23.01 48.08 23.14 47.08 23.26 46.08 23.7 45.21 24.14 44.33 24.86 43.64 25.58 42.94 26.58 42.8 27.57 42.66 28.45 43.13 29.34 43.59 29.78 44.49 30.22 45.39 30.67 47.37 31.11 49.34 31.17 49.84 31.24 50.34 30.61 51.09 29.99 51.85 29.04 52.09 28.09 52.33 27.19 51.97 26.28 51.6 25.76 50.78 25.23 49.95 28.23 49.65 31.23 49.36 30.61 50.11 29.98 50.86 29.04 51.1 28.09 51.34 27.19 50.98 26.28 50.62 25.76 49.79 25.23 48.97 28.23 49.6 31.23 50.23 30.6 50.98 29.98 51.73 29.03 51.97 28.08 52.21 27.17 51.85 26.26 51.49 25.74 50.66 25.22 49.83 25.63 47.32 26.05 44.81 26.94 44.43 27.83 44.05 28.77 44.26 29.71 44.47 30.35 45.2 30.99 45.93 31.07 46.89 31.16 47.85 29.73 47.32 28.3 46.79 28.1 46.24 27.91 45.69 28.63 46.3 29.35 46.92 29.57 47.84 29.79 48.76 29.43 49.63 29.06 50.5 28.26 51 27.45 51.49 27.17 50.61 26.9 49.74 27.38 49.84 27.86 49.94 27.42 50.74 26.98 51.54 26.16 51.94 25.33 52.33 24.43 52.16 23.53 51.99 22.91 51.33 22.28 50.66 21.89 48.82 21.49 46.98 21.42 46.36 21.34 45.74 22.09 45.25 22.84 44.76 23.74 44.81 24.63 44.85 25.33 45.42 26.03 45.98 26.26 46.84 26.49 47.71 26.08 49.78 25.66 51.86 24.96 52.37 24.26 52.87 23.4 52.87 22.54 52.87 21.84 52.37 21.14 51.86 20.87 51.04 20.61 50.22 20.66 49.3 20.71 48.38 20.65 47.85 20.59 47.33 21.27 46.84 21.95 46.34 22.8 46.34 23.65 46.34 24.33 46.84 25.01 47.33 25.28 48.14 25.54 48.94 23.69 48.9 21.85 48.86 21.24 48.73 20.63 48.59 21.3 48.1 21.97 47.62 22.8 47.62 23.63 47.62 24.3 48.1 24.97 48.59 25.23 49.38 25.48 50.17 23.05 49.17 20.61 48.18 21.29 47.69 21.96 47.19 22.8 47.19 23.64 47.19 24.31 47.69 24.99 48.18 25.25 48.97 25.51 49.77 25.21 51.77 24.92 53.76 24.27 54.24 23.61 54.72 22.8 54.72 21.99 54.72 21.34 54.24 20.68 53.77 20.43 53 20.18 52.23 20.5 49.98 20.83 47.74 20.92 47.23 21.01 46.72 21.67 46.36 22.34 46 23.09 46.1 23.84 46.19 24.39 46.71 24.94 47.23 25.07 47.98 25.21 48.72 24.45 50.47 23.68 52.21 22 52.55 20.33 52.9 19.53 52.12 18.74 51.35 19.3 51.43 19.87 51.51 19.79 51.83 19.72 52.15 19.4 52.08 19.08 52.02 18.86 51.78 18.64 51.54 18.6 51.21 18.57 50.89 18.73 50.61 18.89 50.32 19.18 50.19 19.48 50.05 19.56 49.73 Z"></path><path fill="#e2b2f5" d="M 47.631370849898474 62.56862915010153 Q 47.63 62.57 47.86 63.01 48.08 63.45 48 63.94 47.93 64.43 47.58 64.78 47.23 65.13 46.74 65.2 46.25 65.28 45.81 65.06 45.37 64.83 45.14 64.39 44.92 63.95 45 63.46 45.07 62.97 45.42 62.62 45.77 62.27 46.26 62.2 46.75 62.12 47.19 62.34 47.63 62.57 47.63 62.57 Z"></path><path fill="#e2b2f5" d="M 43.67887445373535 68.2375 Q 43.68 68.24 43.5 68.79 43.32 69.34 42.85 69.68 42.38 70.02 41.8 70.02 41.22 70.02 40.75 69.68 40.28 69.34 40.23 69.08 40.18 68.81 39.99 67.6 39.8 66.38 39.99 65.8 40.18 65.21 40.68 64.85 41.18 64.48 41.8 64.48 42.42 64.48 42.92 64.85 43.42 65.21 43.62 66.34 43.83 67.47 43.64 68.06 43.44 68.66 42.93 69.03 42.43 69.4 41.8 69.4 41.17 69.4 40.67 69.03 40.16 68.66 40.1 68.37 40.05 68.08 40.23 67.09 40.41 66.11 40.03 66.76 39.65 67.42 39.03 67.02 38.41 66.62 38.15 65.94 37.88 65.25 38.07 64.54 38.26 63.82 38.83 63.36 39.4 62.89 38.53 62.71 37.66 62.53 37.89 61.78 38.13 61.03 38.76 60.56 39.39 60.09 40.18 60.08 40.96 60.08 41.6 60.53 42.24 60.99 39.97 61.94 37.7 62.9 37.93 62.16 38.16 61.42 38.78 60.96 39.4 60.5 40.18 60.49 40.95 60.49 41.58 60.94 42.21 61.38 39.95 61.89 37.68 62.39 37.92 61.65 38.15 60.91 38.78 60.45 39.4 59.98 40.18 59.98 40.95 59.97 41.59 60.42 42.22 60.87 39.94 62.13 37.65 63.39 37.89 62.64 38.12 61.89 38.76 61.42 39.39 60.95 40.18 60.94 40.96 60.94 41.61 61.39 42.25 61.85 41.67 61.93 41.1 62.01 39.35 61.84 37.6 61.67 37.85 60.91 38.09 60.14 38.74 59.67 39.4 59.2 40.2 59.2 41 59.2 41.66 59.67 42.31 60.14 42.14 60.12 41.97 60.09 41.17 60.19 40.36 60.29 39.38 60.83 38.41 61.38 39.21 60.47 40.02 59.57 41.22 59.68 42.42 59.8 43.04 60.85 43.65 61.89 43.16 63 42.68 64.11 41.5 64.37 40.31 64.63 39.41 63.82 38.5 63.02 38.62 61.82 38.74 60.61 39.79 60 40.83 59.39 41.94 59.87 43.05 60.36 43.31 61.54 43.57 62.72 41.95 63.31 40.34 63.9 39.38 62.53 38.43 61.16 38.26 60.65 38.09 60.14 38.74 59.67 39.4 59.2 40.2 59.2 41 59.2 41.66 59.67 42.31 60.14 42.55 60.91 42.8 61.67 41.04 61.86 39.28 62.04 38.7 61.96 38.12 61.89 38.76 61.42 39.39 60.95 40.18 60.94 40.96 60.94 41.61 61.39 42.25 61.85 42.5 62.6 42.75 63.34 40.45 62.13 38.15 60.91 38.78 60.45 39.4 59.98 40.18 59.98 40.95 59.97 41.59 60.42 42.22 60.87 42.47 61.61 42.72 62.35 40.44 61.88 38.16 61.42 38.78 60.96 39.4 60.5 40.18 60.49 40.95 60.49 41.58 60.94 42.21 61.38 42.46 62.12 42.71 62.85 40.42 61.94 38.13 61.03 38.76 60.56 39.39 60.09 40.18 60.08 40.96 60.08 41.6 60.53 42.24 60.99 42.49 61.73 42.74 62.48 41.1 64.28 39.45 66.07 38.93 66.35 38.41 66.62 38.15 65.94 37.88 65.25 38.07 64.54 38.26 63.82 38.83 63.36 39.4 62.89 40.14 62.85 40.87 62.81 41.27 63.08 41.66 63.35 42.63 64.45 43.59 65.56 43.57 66.82 43.55 68.08 43.5 68.37 43.44 68.66 42.93 69.03 42.43 69.4 41.8 69.4 41.17 69.4 40.67 69.03 40.16 68.66 39.96 68.06 39.77 67.47 39.98 66.34 40.18 65.21 40.68 64.85 41.18 64.48 41.8 64.48 42.42 64.48 42.92 64.85 43.42 65.21 43.61 65.8 43.8 66.38 43.61 67.6 43.42 68.81 43.37 69.08 43.32 69.34 42.85 69.68 42.38 70.02 41.8 70.02 41.22 70.02 40.75 69.68 40.28 69.34 40.1 68.79 39.92 68.24 39.92 67.17 39.92 66.1 40.1 65.55 40.28 65 40.75 64.65 41.22 64.31 41.8 64.31 42.38 64.31 42.85 64.65 43.32 65 43.5 65.55 43.68 66.1 43.68 67.17 Z"></path><path fill="#e2b2f5" d="M 45 62.400000000000006 Q 45 62.4 45 62.4 45 62.4 45 62.4 45 62.4 45 62.4 45 62.4 45.22 62.54 45.44 62.67 46.32 63.41 47.2 64.15 48 66.12 48.81 68.1 48.63 68.79 48.45 69.49 47.9 69.94 47.34 70.4 46.63 70.44 45.91 70.48 45.31 70.09 44.7 69.71 44.52 69.46 44.34 69.2 42.89 66.29 41.44 63.38 41.66 62.56 41.89 61.73 42.55 61.2 43.21 60.66 44.07 60.61 44.92 60.57 45.64 61.03 46.35 61.5 47 63.56 47.65 65.63 47.37 66.47 47.1 67.3 46.39 67.82 45.67 68.33 44.79 68.33 43.91 68.33 43.2 67.81 42.49 67.29 42.44 66.69 42.39 66.08 42.17 62.68 41.95 59.27 42.24 58.38 42.53 57.48 43.3 56.93 44.06 56.38 45.01 56.38 45.95 56.38 46.71 56.94 47.47 57.49 44.72 58.58 41.97 59.66 42.26 58.77 42.55 57.88 43.31 57.33 44.07 56.78 45.01 56.78 45.94 56.79 46.7 57.34 47.46 57.89 44.71 58.53 41.96 59.16 42.25 58.27 42.55 57.37 43.31 56.82 44.07 56.27 45.01 56.28 45.95 56.28 46.7 56.83 47.46 57.39 48.18 57.75 48.89 58.11 51.19 59.72 53.49 61.33 54.27 63.84 55.05 66.35 54.92 67.89 54.79 69.43 53.47 70.23 52.15 71.03 50.72 70.43 49.3 69.83 48.94 68.32 48.59 66.82 49.6 65.65 50.61 64.48 52.15 64.61 53.7 64.74 54.5 66.06 55.3 67.38 54.7 68.81 54.1 70.24 52.59 70.59 51.09 70.94 49.92 69.93 48.74 68.92 48.68 67.14 48.62 65.36 46.64 63.79 44.66 62.22 43.69 60.32 42.73 58.42 42.64 57.9 42.55 57.37 43.31 56.82 44.07 56.27 45.01 56.28 45.95 56.28 46.7 56.83 47.46 57.39 47.75 58.28 48.04 59.17 45.29 58.53 42.55 57.88 43.31 57.33 44.07 56.78 45.01 56.78 45.94 56.79 46.7 57.34 47.46 57.89 47.75 58.78 48.03 59.68 45.28 58.58 42.53 57.48 43.3 56.93 44.06 56.38 45.01 56.38 45.95 56.38 46.71 56.94 47.47 57.49 47.76 58.39 48.05 59.29 47.68 62.72 47.3 66.14 47.2 66.72 47.1 67.3 46.39 67.82 45.67 68.33 44.79 68.33 43.91 68.33 43.2 67.81 42.49 67.29 42.22 66.45 41.95 65.61 41.92 63.67 41.89 61.73 42.55 61.2 43.21 60.66 44.07 60.61 44.92 60.57 45.64 61.03 46.35 61.5 46.66 62.3 46.96 63.1 47.24 64.38 47.53 65.67 47.89 67.08 48.25 68.49 48.35 68.99 48.45 69.49 47.9 69.94 47.34 70.4 46.63 70.44 45.91 70.48 45.31 70.09 44.7 69.71 44.44 69.04 44.18 68.37 43.8 66.33 43.42 64.28 43.99 63.48 44.56 62.67 44.78 62.54 45 62.4 45 62.4 45 62.4 45 62.4 45 62.4 45 62.4 45 62.4 44.89 62.63 44.78 62.86 44.84 62.81 44.9 62.76 44.98 62.76 45.06 62.75 45.13 62.79 45.2 62.83 45.23 62.91 45.26 62.98 45.24 63.06 45.22 63.14 45.11 62.77 Z"></path><path fill="#e2b2f5" d="M 41.33137084989848 68.96862915010152 Q 41.33 68.97 41.56 69.41 41.78 69.85 41.7 70.34 41.63 70.83 41.28 71.18 40.93 71.53 40.44 71.6 39.95 71.68 39.51 71.46 39.07 71.23 38.84 70.79 38.62 70.35 38.7 69.86 38.77 69.37 39.12 69.02 39.47 68.67 39.96 68.6 40.45 68.52 40.89 68.74 41.33 68.97 41.33 68.97 Z"></path><path fill="#e2b2f5" d="M 18.431370849898478 51.56862915010153 Q 18.43 51.57 18.66 52.01 18.88 52.45 18.8 52.94 18.73 53.43 18.38 53.78 18.03 54.13 17.54 54.2 17.05 54.28 16.61 54.06 16.17 53.83 15.94 53.39 15.72 52.95 15.8 52.46 15.87 51.97 16.22 51.62 16.57 51.27 17.06 51.2 17.55 51.12 17.99 51.34 18.43 51.57 18.43 51.57 Z"></path><path fill="#e2b2f5" d="M 66.52818371724067 48.57462358616863 Q 66.53 48.57 66.9 48.31 67.27 48.05 67.96 46.18 68.65 44.3 69.09 43.72 69.53 43.14 70.22 42.93 70.92 42.72 71.61 42.96 72.29 43.2 72.71 43.79 73.13 44.39 72.24 44.06 71.35 43.73 71.71 42.99 72.08 42.25 72.81 41.87 73.54 41.49 74.35 41.6 75.16 41.72 75.75 42.3 76.34 42.87 76.55 43.71 76.76 44.55 76.76 45.38 76.75 46.22 76.25 46.89 75.75 47.56 74.95 47.81 74.16 48.06 73.37 47.79 72.58 47.53 74.67 45.83 76.76 44.14 76.75 44.97 76.74 45.8 76.24 46.46 75.75 47.13 74.96 47.37 74.17 47.62 73.38 47.36 72.6 47.09 73.13 46.88 73.67 46.67 75.33 46.76 76.98 46.84 76.72 47.66 76.45 48.48 75.76 48.99 75.06 49.49 74.2 49.49 73.34 49.49 72.65 48.99 71.95 48.48 71.26 46.63 70.56 44.78 70.69 43.9 70.81 43.01 71.43 42.36 72.04 41.72 72.93 41.56 73.81 41.4 74.61 41.79 75.42 42.18 75.53 42.74 75.65 43.3 75.78 45.43 75.91 47.57 74.37 48.96 72.82 50.35 70.84 50.82 68.86 51.29 67.99 50.78 67.12 50.27 66.72 49.35 66.32 48.43 66.53 47.45 66.75 46.47 67.5 45.8 68.25 45.13 68.53 48.43 68.82 51.73 67.95 51.22 67.09 50.71 66.68 49.79 66.28 48.87 66.5 47.89 66.71 46.91 67.46 46.24 68.21 45.58 68.21 48.41 68.21 51.24 67.34 50.74 66.47 50.23 66.07 49.3 65.66 48.38 65.88 47.4 66.09 46.42 66.85 45.75 67.6 45.08 67.97 45.78 68.33 46.48 68.44 49.49 68.55 52.51 67.13 52.09 65.7 51.67 65.21 50.27 64.71 48.87 65.55 47.64 66.39 46.42 67.87 46.38 69.36 46.33 70.26 47.51 71.17 48.69 70.75 50.11 70.33 51.54 68.93 52.04 67.53 52.53 66.31 51.7 65.08 50.86 65.04 49.37 65 47.89 66.17 46.98 67.35 46.07 67.04 47.55 66.73 49.03 66.6 49.63 66.47 50.23 66.07 49.3 65.66 48.38 65.88 47.4 66.09 46.42 66.85 45.75 67.6 45.08 68.6 44.98 69.6 44.88 68.34 47.8 67.09 50.71 66.68 49.79 66.28 48.87 66.5 47.89 66.71 46.91 67.46 46.24 68.21 45.58 69.21 45.48 70.21 45.38 68.67 47.83 67.12 50.27 66.72 49.35 66.32 48.43 66.53 47.45 66.75 46.47 67.5 45.8 68.25 45.13 69.25 45.03 70.25 44.93 70.29 46.16 70.34 47.38 70.39 45.7 70.44 44.01 70.62 43.51 70.81 43.01 71.43 42.36 72.04 41.72 72.93 41.56 73.81 41.4 74.61 41.79 75.42 42.18 75.84 42.97 76.26 43.76 76.3 45.62 76.34 47.48 76.39 47.98 76.45 48.48 75.76 48.99 75.06 49.49 74.2 49.49 73.34 49.49 72.65 48.99 71.95 48.48 71.68 47.67 71.42 46.85 73.42 46.28 75.43 45.71 76.09 45.75 76.74 45.8 76.24 46.46 75.75 47.13 74.96 47.37 74.17 47.62 73.38 47.36 72.6 47.09 72.12 46.42 71.64 45.74 74.19 45.98 76.75 46.22 76.25 46.89 75.75 47.56 74.95 47.81 74.16 48.06 73.37 47.79 72.58 47.53 72.09 46.85 71.61 46.16 71.84 44.21 72.08 42.25 72.81 41.87 73.54 41.49 74.35 41.6 75.16 41.72 75.75 42.3 76.34 42.87 76.48 43.68 76.62 44.49 74.86 46.15 73.11 47.81 71.46 47.39 69.82 46.96 69.6 45.46 69.39 43.97 69.46 43.56 69.53 43.14 70.22 42.93 70.92 42.72 71.61 42.96 72.29 43.2 72.71 43.79 73.13 44.39 73.11 45.12 73.1 45.85 71.72 47.73 70.35 49.62 69.35 50.18 68.35 50.73 68.18 51.06 68.01 51.38 67.61 51.54 67.2 51.71 66.78 51.6 66.36 51.5 66.07 51.16 65.79 50.83 65.76 50.4 65.73 49.96 65.96 49.59 66.19 49.22 66.36 48.9 Z"></path><path fill="#e2b2f5" d="M 78.53137084989848 41.268629150101525 Q 78.53 41.27 78.76 41.71 78.98 42.15 78.9 42.64 78.83 43.13 78.48 43.48 78.13 43.83 77.64 43.9 77.15 43.98 76.71 43.76 76.27 43.53 76.04 43.09 75.82 42.65 75.9 42.16 75.97 41.67 76.32 41.32 76.67 40.97 77.16 40.9 77.65 40.82 78.09 41.04 78.53 41.27 78.53 41.27 Z"></path><path fill="#e2b2f5" d="M 73.73137084989847 35.768629150101525 Q 73.73 35.77 73.96 36.21 74.18 36.65 74.1 37.14 74.03 37.63 73.68 37.98 73.33 38.33 72.84 38.4 72.35 38.48 71.91 38.26 71.47 38.03 71.24 37.59 71.02 37.15 71.1 36.66 71.17 36.17 71.52 35.82 71.87 35.47 72.36 35.4 72.85 35.32 73.29 35.54 73.73 35.77 73.73 35.77 Z"></path><path fill="#e2b2f5" d="M 47.473098409271245 25.653125 Q 47.47 25.65 47.63 27.22 47.79 28.79 47.9 30.22 48.01 31.64 48.03 34.02 48.05 36.4 47.72 38.63 47.39 40.87 47.07 41.73 46.75 42.6 45.98 43.11 45.2 43.62 44.28 43.58 43.36 43.54 42.63 42.97 41.91 42.39 41.82 41.84 41.73 41.29 41.45 39.24 41.18 37.19 41.47 35.8 41.75 34.41 43.05 33.82 44.34 33.23 45.58 33.94 46.81 34.64 46.97 36.05 47.13 37.46 46.08 38.42 45.03 39.38 43.64 39.09 42.25 38.81 41.66 37.51 41.07 36.22 41.78 34.98 42.48 33.75 43.89 33.59 45.3 33.43 46.26 34.48 47.22 35.53 47.03 38.47 46.85 41.41 46.8 42.01 46.75 42.6 45.98 43.11 45.2 43.62 44.28 43.58 43.36 43.54 42.63 42.97 41.91 42.39 41.66 41.5 41.41 40.61 42.15 38.32 42.88 36.04 43.13 33.84 43.39 31.64 43.5 30.22 43.61 28.79 43.77 27.22 43.93 25.65 43.93 24.93 43.93 24.2 44.1 23.68 44.27 23.16 44.71 22.84 45.15 22.51 45.7 22.51 46.25 22.51 46.69 22.84 47.13 23.16 47.3 23.68 47.47 24.2 47.47 24.93 Z"></path><path fill="#4a2f21" d="M 44.862741699796956 42.53725830020304 Q 44.86 42.54 45.31 43.42 45.76 44.3 45.61 45.28 45.45 46.25 44.75 46.95 44.05 47.65 43.08 47.81 42.1 47.96 41.22 47.51 40.34 47.06 39.89 46.18 39.44 45.3 39.59 44.32 39.75 43.35 40.45 42.65 41.15 41.95 42.12 41.79 43.1 41.64 43.98 42.09 44.86 42.54 44.86 42.54 Z"></path><path fill="#4a2f21" d="M 44.862741699796956 42.53725830020304 Q 44.86 42.54 45.31 43.42 45.76 44.3 45.61 45.28 45.45 46.25 44.75 46.95 44.05 47.65 43.08 47.81 42.1 47.96 41.22 47.51 40.34 47.06 39.89 46.18 39.44 45.3 39.59 44.32 39.75 43.35 40.45 42.65 41.15 41.95 42.12 41.79 43.1 41.64 43.98 42.09 44.86 42.54 44.86 42.54 Z"></path><path fill="#4a2f21" d="M 47.16274169979695 41.83725830020305 Q 47.16 41.84 47.61 42.72 48.06 43.6 47.91 44.58 47.75 45.55 47.05 46.25 46.35 46.95 45.38 47.11 44.4 47.26 43.52 46.81 42.64 46.36 42.19 45.48 41.74 44.6 41.89 43.62 42.05 42.65 42.75 41.95 43.45 41.25 44.42 41.09 45.4 40.94 46.28 41.39 47.16 41.84 47.16 41.84 Z"></path><path fill="#4a2f21" d="M 49.56274169979695 44.237258300203045 Q 49.56 44.24 50.01 45.12 50.46 46 50.31 46.98 50.15 47.95 49.45 48.65 48.75 49.35 47.78 49.51 46.8 49.66 45.92 49.21 45.04 48.76 44.59 47.88 44.14 47 44.29 46.02 44.45 45.05 45.15 44.35 45.85 43.65 46.82 43.49 47.8 43.34 48.68 43.79 49.56 44.24 49.56 44.24 Z"></path><path fill="#4a2f21" d="M 42.96274169979696 44.43725830020305 Q 42.96 44.44 43.41 45.32 43.86 46.2 43.71 47.18 43.55 48.15 42.85 48.85 42.15 49.55 41.18 49.71 40.2 49.86 39.32 49.41 38.44 48.96 37.99 48.08 37.54 47.2 37.69 46.22 37.85 45.25 38.55 44.55 39.25 43.85 40.22 43.69 41.2 43.54 42.08 43.99 42.96 44.44 42.96 44.44 Z"></path><path fill="#4a2f21" d="M 42.96274169979696 47.93725830020305 Q 42.96 47.94 43.41 48.82 43.86 49.7 43.71 50.68 43.55 51.65 42.85 52.35 42.15 53.05 41.18 53.21 40.2 53.36 39.32 52.91 38.44 52.46 37.99 51.58 37.54 50.7 37.69 49.72 37.85 48.75 38.55 48.05 39.25 47.35 40.22 47.19 41.2 47.04 42.08 47.49 42.96 47.94 42.96 47.94 Z"></path><path fill="#4a2f21" d="M 45.56274169979695 49.737258300203045 Q 45.56 49.74 46.01 50.62 46.46 51.5 46.31 52.48 46.15 53.45 45.45 54.15 44.75 54.85 43.78 55.01 42.8 55.16 41.92 54.71 41.04 54.26 40.59 53.38 40.14 52.5 40.29 51.52 40.45 50.55 41.15 49.85 41.85 49.15 42.82 48.99 43.8 48.84 44.68 49.29 45.56 49.74 45.56 49.74 Z"></path><path fill="#4a2f21" d="M 45.862741699796956 47.33725830020305 Q 45.86 47.34 46.31 48.22 46.76 49.1 46.61 50.08 46.45 51.05 45.75 51.75 45.05 52.45 44.08 52.61 43.1 52.76 42.22 52.31 41.34 51.86 40.89 50.98 40.44 50.1 40.59 49.12 40.75 48.15 41.45 47.45 42.15 46.75 43.12 46.59 44.1 46.44 44.98 46.89 45.86 47.34 45.86 47.34 Z"></path><path fill="#4a2f21" d="M 49.262741699796955 50.53725830020304 Q 49.26 50.54 49.71 51.42 50.16 52.3 50.01 53.28 49.85 54.25 49.15 54.95 48.45 55.65 47.48 55.81 46.5 55.96 45.62 55.51 44.74 55.06 44.29 54.18 43.84 53.3 43.99 52.32 44.15 51.35 44.85 50.65 45.55 49.95 46.52 49.79 47.5 49.64 48.38 50.09 49.26 50.54 49.26 50.54 Z"></path><path fill="#4a2f21" d="M 50.06274169979695 45.53725830020304 Q 50.06 45.54 50.51 46.42 50.96 47.3 50.81 48.28 50.65 49.25 49.95 49.95 49.25 50.65 48.28 50.81 47.3 50.96 46.42 50.51 45.54 50.06 45.09 49.18 44.64 48.3 44.79 47.32 44.95 46.35 45.65 45.65 46.35 44.95 47.32 44.79 48.3 44.64 49.18 45.09 50.06 45.54 50.06 45.54 Z"></path><path fill="#4a2f21" d="M 51.16274169979695 47.33725830020305 Q 51.16 47.34 51.61 48.22 52.06 49.1 51.91 50.08 51.75 51.05 51.05 51.75 50.35 52.45 49.38 52.61 48.4 52.76 47.52 52.31 46.64 51.86 46.19 50.98 45.74 50.1 45.89 49.12 46.05 48.15 46.75 47.45 47.45 46.75 48.42 46.59 49.4 46.44 50.28 46.89 51.16 47.34 51.16 47.34 Z"></path><path fill="#fdfdc9" d="M 34.054029255633914 85.51015901415948 Q 34.05 85.51 35.19 86.09 36.33 86.67 36.21 87.24 36.09 87.8 34.49 88.36 32.9 88.92 33.81 88 34.72 87.09 35.99 86.88 37.26 86.68 38.41 87.26 39.57 87.84 40.15 88.99 40.74 90.13 38.81 90.76 36.88 91.38 35.2 92.35 33.52 93.33 33.33 93.32 33.15 93.31 32.29 92.73 31.43 92.15 30.6 91.99 29.77 91.83 28.03 91.49 26.29 91.14 24.02 89.33 21.75 87.51 21.94 85.9 22.13 84.3 23.22 83.1 24.31 81.91 25.9 81.59 27.49 81.27 28.96 81.95 30.43 82.62 30.72 84.15 31.01 85.69 32.06 87.49 33.11 89.29 33.65 90.97 34.2 92.65 33.65 94.32 33.11 96 31.68 97.04 30.25 98.07 28.49 98.07 26.73 98.07 25.87 96.12 25.02 94.16 24.33 93.19 23.64 92.21 24.39 94 25.13 95.78 24.99 96.14 24.85 96.5 23.58 95.01 22.31 93.52 21.46 91.42 20.62 89.31 20.11 87.34 19.61 85.37 19.36 84.12 19.11 82.87 19.59 80.98 20.06 79.08 21.56 77.83 23.05 76.58 25 76.44 26.95 76.31 28.6 77.34 30.26 78.38 24.68 80.67 19.1 82.95 19.58 81.06 20.05 79.16 21.55 77.91 23.05 76.66 24.99 76.52 26.94 76.39 28.6 77.42 30.25 78.46 27.46 79.55 24.67 80.63 21.91 80.65 19.15 80.67 19.2 78.76 19.24 76.86 19.89 74.94 20.55 73.02 22.2 71.86 23.86 70.69 25.89 70.72 27.92 70.75 29.54 71.97 31.16 73.18 31.83 74.6 32.49 76.01 32.24 78.02 31.98 80.04 30.59 81.52 29.2 83 27.2 83.37 25.2 83.75 23.37 82.88 21.53 82.02 21.14 80.19 20.75 78.37 20.18 77.06 19.61 75.75 20.39 73.87 21.17 71.98 22.92 70.92 24.66 69.85 26.69 70.02 28.73 70.18 30.28 71.51 31.83 72.83 32.07 73.68 32.31 74.53 32.56 75.63 32.81 76.73 32.2 78.68 31.58 80.63 29.94 81.85 28.29 83.06 26.25 83.07 24.2 83.09 22.54 81.9 20.88 80.71 20.55 79.7 20.23 78.68 19.9 77.5 19.57 76.32 20.2 74.37 20.84 72.42 22.5 71.22 24.16 70.01 26.21 70.02 28.26 70.02 29.91 71.22 31.57 72.43 31.86 73.36 32.15 74.29 32.58 75.56 33 76.83 32.37 78.78 31.73 80.74 30.07 81.95 28.41 83.16 26.35 83.16 24.3 83.16 22.63 81.95 20.97 80.74 20.92 78.88 20.87 77.01 20.34 76.24 19.81 75.46 20.48 73.5 21.16 71.55 22.86 70.37 24.55 69.19 26.62 69.23 28.69 69.27 30.34 70.52 31.98 71.76 32.28 72.71 32.59 73.65 32.89 74.68 33.19 75.7 32.6 77.68 32 79.66 30.36 80.92 28.71 82.17 26.64 82.21 24.57 82.26 22.87 81.08 21.17 79.9 20.83 78.84 20.49 77.78 20.61 77.49 20.73 77.21 23.52 78.19 26.31 79.17 29.53 78.41 32.75 77.65 31.67 79.42 30.58 81.19 28.66 81.99 26.73 82.78 24.71 82.29 22.69 81.8 21.35 80.22 20 78.63 19.86 77.79 19.73 76.94 19.59 76.09 19.45 75.23 20.09 73.25 20.73 71.26 22.41 70.03 24.1 68.8 26.18 68.8 28.27 68.79 29.96 70.01 31.65 71.23 31.98 72.27 32.3 73.3 32.63 74.55 32.96 75.8 31.57 78.53 30.17 81.26 27.14 81.74 24.1 82.22 21.94 80.04 19.77 77.87 20.25 74.84 20.73 71.81 23.47 70.42 26.21 69.03 28.94 70.42 31.67 71.82 32.15 74.85 32.63 77.89 30.46 80.05 28.28 82.22 25.25 81.74 22.22 81.26 20.83 78.52 19.44 75.78 19.76 74.54 20.09 73.31 20.41 72.28 20.73 71.26 22.41 70.03 24.1 68.8 26.18 68.8 28.27 68.79 29.96 70.01 31.65 71.23 32.3 73.21 32.95 75.2 32.3 76.49 31.65 77.79 31.11 79.49 30.58 81.19 28.66 81.99 26.73 82.78 24.71 82.29 22.69 81.8 21.35 80.22 20 78.63 19.84 76.56 19.68 74.49 20.2 73.71 20.72 72.93 23.63 72.5 26.54 72.07 29.4 73.17 32.27 74.28 32.43 76.05 32.6 77.83 32.3 78.74 32 79.66 30.36 80.92 28.71 82.17 26.64 82.21 24.57 82.26 22.87 81.08 21.17 79.9 20.49 77.95 19.8 76 20.14 74.85 20.49 73.7 20.82 72.62 21.16 71.55 22.86 70.37 24.55 69.19 26.62 69.23 28.69 69.27 30.34 70.52 31.98 71.76 32.58 73.74 33.18 75.72 32.78 77.47 32.37 79.21 32.05 79.98 31.73 80.74 30.07 81.95 28.41 83.16 26.35 83.16 24.3 83.16 22.63 81.95 20.97 80.74 20.33 78.79 19.7 76.83 19.97 75.76 20.25 74.7 20.54 73.56 20.84 72.42 22.5 71.22 24.16 70.01 26.21 70.02 28.26 70.02 29.91 71.22 31.57 72.43 32.2 74.38 32.83 76.33 32.51 77.51 32.2 78.68 31.89 79.66 31.58 80.63 29.94 81.85 28.29 83.06 26.25 83.07 24.2 83.09 22.54 81.9 20.88 80.71 20.23 78.77 19.58 76.84 19.99 75.57 20.39 74.31 20.78 73.15 21.17 71.98 22.92 70.92 24.66 69.85 26.69 70.02 28.73 70.18 30.28 71.51 31.83 72.83 32.3 74.82 32.77 76.8 32.38 78.42 31.98 80.04 30.59 81.52 29.2 83 27.2 83.37 25.2 83.75 23.37 82.88 21.53 82.02 20.56 80.24 19.58 78.45 20.04 77.64 20.49 76.83 20.52 74.93 20.55 73.02 22.2 71.86 23.86 70.69 25.89 70.72 27.92 70.75 29.54 71.97 31.16 73.18 31.76 75.12 32.36 77.06 32.15 78.71 31.93 80.37 28.91 80.51 25.88 80.64 22.97 79.9 20.05 79.16 21.55 77.91 23.05 76.66 24.99 76.52 26.94 76.39 28.6 77.42 30.25 78.46 30.98 80.27 31.71 82.08 25.88 80.58 20.06 79.08 21.56 77.83 23.05 76.58 25 76.44 26.95 76.31 28.6 77.34 30.26 78.38 30.99 80.19 31.71 82 31.83 83.96 31.94 85.92 32.46 88.02 32.98 90.12 33.59 91.38 34.2 92.65 33.65 94.32 33.11 96 31.68 97.04 30.25 98.07 28.49 98.07 26.73 98.07 25.3 97.04 23.87 96 23.53 94.95 23.19 93.89 22.54 91.73 21.88 89.57 21.83 87.74 21.78 85.91 21.95 85.1 22.13 84.3 23.22 83.1 24.31 81.91 25.9 81.59 27.49 81.27 28.96 81.95 30.43 82.62 31.22 84.03 32.02 85.44 30.58 84.13 29.15 82.82 29.24 82.47 29.34 82.12 30.68 82.29 32.01 82.46 33.01 82.78 34.01 83.1 35.06 83.69 36.12 84.28 36.99 85.12 37.87 85.97 38.6 86.88 39.33 87.8 38.37 87.84 37.42 87.89 36.07 87.49 34.72 87.09 35.99 86.88 37.26 86.68 38.41 87.26 39.57 87.84 40.15 88.99 40.74 90.13 40.54 91.41 40.35 92.68 38.39 93.53 36.44 94.38 34.88 94.11 33.32 93.83 32.33 93.03 31.33 92.22 30.44 91.41 29.56 90.6 29.01 90.12 28.45 89.65 27.92 88.74 27.38 87.84 27.48 86.79 27.58 85.75 28.28 84.96 28.97 84.18 30 83.95 31.02 83.72 31.98 84.14 32.95 84.55 33.5 85.03 Z"></path><path fill="#fdfdc9" d="M 35.65323377866476 82.5286587448208 Q 35.65 82.53 35.93 82.55 36.21 82.57 36.22 82.71 36.24 82.84 36.27 82.64 36.3 82.44 37.59 82.87 38.87 83.31 40.02 83.85 41.16 84.38 41.54 86.2 41.92 88.02 40.67 89.4 39.42 90.77 37.57 90.57 35.73 90.36 34.81 88.75 33.89 87.14 34.65 85.45 35.41 83.75 37.23 83.37 39.05 83 40.42 84.25 41.8 85.49 41.6 87.34 41.39 89.19 39.78 90.11 38.17 91.03 36.47 90.27 34.78 89.5 34.99 89.53 35.21 89.57 35.25 89.74 35.29 89.9 34.46 89.6 33.63 89.3 32.75 88.58 31.88 87.86 31.16 86.93 30.45 86.01 30.12 85.23 29.79 84.46 29.83 84.41 29.87 84.37 29.86 83.41 29.86 82.46 30.42 81.68 30.98 80.91 31.88 80.61 32.79 80.31 33.7 80.6 34.6 80.9 35.17 81.66 35.73 82.43 35.69 82.48 Z"></path><path fill="#fdfdc9" d="M 68.56274169979694 20.73725830020305 Q 68.56 20.74 69.01 21.62 69.46 22.5 69.31 23.48 69.15 24.45 68.45 25.15 67.75 25.85 66.78 26.01 65.8 26.16 64.92 25.71 64.04 25.26 63.59 24.38 63.14 23.5 63.29 22.52 63.45 21.55 64.15 20.85 64.85 20.15 65.82 19.99 66.8 19.84 67.68 20.29 68.56 20.74 68.56 20.74 Z"></path><path fill="#fdfdc9" d="M 72.76274169979695 19.937258300203048 Q 72.76 19.94 73.21 20.82 73.66 21.7 73.51 22.68 73.35 23.65 72.65 24.35 71.95 25.05 70.98 25.21 70 25.36 69.12 24.91 68.24 24.46 67.79 23.58 67.34 22.7 67.49 21.72 67.65 20.75 68.35 20.05 69.05 19.35 70.02 19.19 71 19.04 71.88 19.49 72.76 19.94 72.76 19.94 Z"></path><path fill="#fdfdc9" d="M 90.76274169979695 28.33725830020305 Q 90.76 28.34 91.21 29.22 91.66 30.1 91.51 31.08 91.35 32.05 90.65 32.75 89.95 33.45 88.98 33.61 88 33.76 87.12 33.31 86.24 32.86 85.79 31.98 85.34 31.1 85.49 30.12 85.65 29.15 86.35 28.45 87.05 27.75 88.02 27.59 89 27.44 89.88 27.89 90.76 28.34 90.76 28.34 Z"></path><path fill="#fdfdc9" d="M 93.66274169979695 26.73725830020305 Q 93.66 26.74 94.11 27.62 94.56 28.5 94.41 29.48 94.25 30.45 93.55 31.15 92.85 31.85 91.88 32.01 90.9 32.16 90.02 31.71 89.14 31.26 88.69 30.38 88.24 29.5 88.39 28.52 88.55 27.55 89.25 26.85 89.95 26.15 90.92 25.99 91.9 25.84 92.78 26.29 93.66 26.74 93.66 26.74 Z"></path><path fill="#fdfdc9" d="M 62.762741699796955 20.937258300203048 Q 62.76 20.94 63.21 21.82 63.66 22.7 63.51 23.68 63.35 24.65 62.65 25.35 61.95 26.05 60.98 26.21 60 26.36 59.12 25.91 58.24 25.46 57.79 24.58 57.34 23.7 57.49 22.72 57.65 21.75 58.35 21.05 59.05 20.35 60.02 20.19 61 20.04 61.88 20.49 62.76 20.94 62.76 20.94 Z"></path><path fill="#fdfdc9" d="M 31.862741699796953 68.23725830020305 Q 31.86 68.24 32.31 69.12 32.76 70 32.61 70.98 32.45 71.95 31.75 72.65 31.05 73.35 30.08 73.51 29.1 73.66 28.22 73.21 27.34 72.76 26.89 71.88 26.44 71 26.59 70.02 26.75 69.05 27.45 68.35 28.15 67.65 29.12 67.49 30.1 67.34 30.98 67.79 31.86 68.24 31.86 68.24 Z"></path><path fill="#fdfdc9" d="M 74.66274169979695 60.53725830020304 Q 74.66 60.54 75.11 61.42 75.56 62.3 75.41 63.28 75.25 64.25 74.55 64.95 73.85 65.65 72.88 65.81 71.9 65.96 71.02 65.51 70.14 65.06 69.69 64.18 69.24 63.3 69.39 62.32 69.55 61.35 70.25 60.65 70.95 59.95 71.92 59.79 72.9 59.64 73.78 60.09 74.66 60.54 74.66 60.54 Z"></path><path fill="#e2b2f5" d="M 38.28778176419341 22.399421121274695 Q 38.29 22.4 36.82 23.23 35.36 24.06 35.23 24.17 35.09 24.29 35.54 24.55 35.99 24.82 36.96 24.32 37.94 23.82 37.3 24.68 36.66 25.54 35.64 25.86 34.61 26.18 33.59 25.84 32.58 25.5 31.96 24.62 31.33 23.75 33.02 23.67 34.7 23.58 36.47 23.81 38.25 24.04 37.89 25.11 37.54 26.18 36.62 26.84 35.71 27.49 34.58 27.49 33.45 27.48 32.55 26.81 31.64 26.15 34.92 25.09 38.21 24.03 37.86 25.09 37.51 26.15 36.6 26.8 35.7 27.45 34.58 27.44 33.47 27.44 32.57 26.78 31.67 26.11 33.31 25.63 34.95 25.14 36.64 25.07 38.34 25.01 38.17 24.92 38 24.83 38 24.66 38.01 24.49 38.41 25.22 38.82 25.95 38.73 25.96 38.64 25.97 38.73 26.02 38.82 26.08 39.27 26.95 39.72 27.82 39.69 27.85 39.66 27.88 39.8 28.06 39.95 28.24 39.9 28.26 39.84 28.28 39.81 28.12 39.77 27.97 39.83 28.02 39.89 28.07 39.99 28.15 40.08 28.24 39.91 28.25 39.73 28.26 39.67 28.13 39.62 28.01 40.43 28.72 41.25 29.44 41.75 30.36 42.25 31.28 42.43 32.17 42.61 33.06 42.19 34.49 41.78 35.92 40.6 36.83 39.43 37.74 37.94 37.79 36.45 37.84 35.22 37 33.99 36.17 34.25 34.66 34.52 33.15 36.24 31.63 37.96 30.12 40.08 30.46 42.21 30.79 42.56 32.26 42.91 33.72 42.34 35.11 41.76 36.49 40.48 37.28 39.2 38.07 37.7 37.95 36.2 37.83 39.21 34.31 42.21 30.78 42.57 32.24 42.92 33.7 42.34 35.08 41.77 36.47 40.49 37.25 39.22 38.03 37.72 37.92 36.23 37.8 37.89 36.54 39.55 35.29 41.02 33.56 42.48 31.83 41.95 31.02 41.43 30.21 41.57 30.31 41.72 30.41 42.32 31.3 42.93 32.18 42.87 32.13 42.81 32.07 42.85 31.95 42.89 31.83 43.16 32.31 43.43 32.78 43.6 34.32 43.77 35.87 43 37.21 42.24 38.56 40.82 39.2 39.41 39.84 37.89 39.53 36.37 39.21 37.51 37.18 38.65 35.15 40.61 33.71 42.56 32.28 41.96 32.24 41.37 32.2 39.27 32.32 37.18 32.44 35.93 33.79 34.67 35.14 35.31 33.69 35.96 32.23 37.34 31.44 38.72 30.64 40.3 30.8 41.88 30.97 43.07 32.03 44.25 33.1 44.25 32.76 44.24 32.43 45.31 34.57 46.37 36.7 45.27 38.82 44.17 40.94 41.81 41.3 39.45 41.65 37.77 39.95 36.1 38.25 36.49 35.89 36.88 33.53 39.02 32.47 41.16 31.4 43.28 32.5 45.39 33.6 45.75 35.96 46.1 38.33 44.4 40 42.7 41.68 40.34 41.28 37.99 40.89 37.1 40.03 36.21 39.18 35.92 37.09 35.63 35 35.79 33.62 35.96 32.23 37.34 31.44 38.72 30.64 40.3 30.8 41.88 30.97 43.07 32.03 44.25 33.1 44.58 34.65 44.92 36.21 43.52 37.8 42.12 39.38 40.5 39.56 38.88 39.74 39.64 38.48 40.4 37.22 42.08 36.54 43.77 35.87 43 37.21 42.24 38.56 40.82 39.2 39.41 39.84 37.89 39.53 36.37 39.21 35.33 38.07 34.28 36.92 34.73 37.03 35.18 37.14 35.17 37.12 35.16 37.1 34.49 36.14 33.81 35.18 35.96 34.53 38.11 33.87 40.51 33.78 42.92 33.7 42.34 35.08 41.77 36.47 40.49 37.25 39.22 38.03 37.72 37.92 36.23 37.8 35.09 36.83 33.95 35.86 38.43 34.79 42.91 33.72 42.34 35.11 41.76 36.49 40.48 37.28 39.2 38.07 37.7 37.95 36.2 37.83 35.06 36.86 33.92 35.88 36.16 35.92 38.41 35.96 40.09 35.94 41.78 35.92 40.6 36.83 39.43 37.74 37.94 37.79 36.45 37.84 35.22 37 33.99 36.17 33.48 34.77 32.98 33.36 33.29 33.88 33.59 34.39 33.35 33.96 33.11 33.53 32.97 33.18 32.83 32.83 32.87 32.88 32.9 32.92 32.46 32.02 32.01 31.13 32.16 31.01 32.32 30.89 32.38 30.66 32.44 30.43 31.89 29.01 31.35 27.58 31.11 26.29 30.86 25 32.55 25.07 34.24 25.15 35.87 25.65 37.51 26.15 36.6 26.8 35.7 27.45 34.58 27.44 33.47 27.44 32.57 26.78 31.67 26.11 31.33 25.05 30.99 23.99 34.26 25.08 37.54 26.18 36.62 26.84 35.71 27.49 34.58 27.49 33.45 27.48 32.55 26.81 31.64 26.15 31.3 25.07 30.96 24 32.44 23.96 33.92 23.92 35.29 24.73 36.66 25.54 35.64 25.86 34.61 26.18 33.59 25.84 32.58 25.5 31.96 24.62 31.33 23.75 31.35 22.68 31.36 21.6 32.43 20.98 33.5 20.35 34.12 20.53 34.75 20.72 34.75 20.82 34.76 20.91 34.1 20.78 33.44 20.66 33.82 20.21 34.21 19.76 34.79 19.63 35.36 19.49 35.91 19.72 36.45 19.95 36.76 20.46 37.06 20.97 37.01 21.56 36.96 22.14 37.63 22.27 Z"></path><path fill="#e2b2f5" d="M 79.36274169979694 41.33725830020305 Q 79.36 41.34 79.81 42.22 80.26 43.1 80.11 44.08 79.95 45.05 79.25 45.75 78.55 46.45 77.58 46.61 76.6 46.76 75.72 46.31 74.84 45.86 74.39 44.98 73.94 44.1 74.09 43.12 74.25 42.15 74.95 41.45 75.65 40.75 76.62 40.59 77.6 40.44 78.48 40.89 79.36 41.34 79.36 41.34 Z"></path><path fill="#e2b2f5" d="M 30.26274169979695 41.03725830020304 Q 30.26 41.04 30.71 41.92 31.16 42.8 31.01 43.78 30.85 44.75 30.15 45.45 29.45 46.15 28.48 46.31 27.5 46.46 26.62 46.01 25.74 45.56 25.29 44.68 24.84 43.8 24.99 42.82 25.15 41.85 25.85 41.15 26.55 40.45 27.52 40.29 28.5 40.14 29.38 40.59 30.26 41.04 30.26 41.04 Z"></path><path fill="#e2b2f5" d="M 66.96274169979695 47.93725830020305 Q 66.96 47.94 67.41 48.82 67.86 49.7 67.71 50.68 67.55 51.65 66.85 52.35 66.15 53.05 65.18 53.21 64.2 53.36 63.32 52.91 62.44 52.46 61.99 51.58 61.54 50.7 61.69 49.72 61.85 48.75 62.55 48.05 63.25 47.35 64.22 47.19 65.2 47.04 66.08 47.49 66.96 47.94 66.96 47.94 Z"></path></svg>